# xmcd CD database file
#
# Track frame offsets:
#	150
#	2359
#	17566
#	29941
#	45444
#	47406
#	68317
#	71602
#	82364
#	95417
#	112477
#	127372
#	139369
#	150993
#	156672
#	169120
#	174339
#
# Disc length: 2505 seconds
#
# Revision: 4
# Processed by: cddbd v1.5.1PL0 Copyright (c) Steve Scherf et al.
# Submitted via: CDex 1.51
#
DISCID=e909c711
DTITLE=Jools Holland and his Rhythm and Blues Orchestra - Sunset Over London
DYEAR=1999
DGENRE=Jazz
TTITLE0=The Seventh Sacrament
TTITLE1=Let the Good Times Roll
TTITLE2=Grey to Blue
TTITLE3=Reconsider Baby
TTITLE4=Hocus Pocum
TTITLE5=I Dig Rhythm and Blues
TTITLE6=Havana Evening
TTITLE7=As the Sun Sets Over London
TTITLE8=Dangerman
TTITLE9=(Robbie Coltrane Introduces) Avenue C
TTITLE10=Travelling Blues
TTITLE11=Well You Needn't
TTITLE12=Lady Madonna
TTITLE13=Introduciton To
TTITLE14=Love You and Leave You
TTITLE15=Momentary Loss of Point
TTITLE16=Foolish I Know
EXTD=YEAR: 1999
EXTT0=
EXTT1=
EXTT2=
EXTT3=
EXTT4=
EXTT5=
EXTT6=
EXTT7=
EXTT8=
EXTT9=
EXTT10=
EXTT11=
EXTT12=
EXTT13=
EXTT14=
EXTT15=
EXTT16=
PLAYORDER=
